<mxfile host="app.diagrams.net" agent="Mozilla/5.0 (Windows NT 10.0; Win64; x64) AppleWebKit/537.36 (KHTML, like Gecko) Chrome/129.0.0.0 Safari/537.36" version="24.7.16">
  <diagram name="Halaman-1" id="T3c3gDVFyd4eqPvMtgHM">
    <mxGraphModel dx="1222" dy="686" grid="1" gridSize="10" guides="1" tooltips="1" connect="1" arrows="1" fold="1" page="1" pageScale="1" pageWidth="827" pageHeight="1169" math="0" shadow="0">
      <root>
        <mxCell id="0" />
        <mxCell id="1" parent="0" />
        <mxCell id="JnQCX83TrEtzzExQsLUF-2" value="Mulai" style="ellipse;whiteSpace=wrap;html=1;" vertex="1" parent="1">
          <mxGeometry x="50" y="20" width="86" height="40" as="geometry" />
        </mxCell>
        <mxCell id="JnQCX83TrEtzzExQsLUF-3" value="" style="endArrow=classic;html=1;rounded=0;" edge="1" parent="1">
          <mxGeometry width="50" height="50" relative="1" as="geometry">
            <mxPoint x="92.5" y="60" as="sourcePoint" />
            <mxPoint x="92.75" y="90" as="targetPoint" />
            <Array as="points" />
          </mxGeometry>
        </mxCell>
        <mxCell id="JnQCX83TrEtzzExQsLUF-8" value="Input Usia" style="shape=parallelogram;perimeter=parallelogramPerimeter;whiteSpace=wrap;html=1;fixedSize=1;" vertex="1" parent="1">
          <mxGeometry x="38" y="160" width="110" height="40" as="geometry" />
        </mxCell>
        <mxCell id="JnQCX83TrEtzzExQsLUF-12" value="" style="edgeStyle=orthogonalEdgeStyle;rounded=0;orthogonalLoop=1;jettySize=auto;html=1;" edge="1" parent="1" source="JnQCX83TrEtzzExQsLUF-9" target="JnQCX83TrEtzzExQsLUF-8">
          <mxGeometry relative="1" as="geometry" />
        </mxCell>
        <mxCell id="JnQCX83TrEtzzExQsLUF-9" value="Int Usia" style="shape=hexagon;perimeter=hexagonPerimeter2;whiteSpace=wrap;html=1;fixedSize=1;" vertex="1" parent="1">
          <mxGeometry x="33" y="90" width="120" height="40" as="geometry" />
        </mxCell>
        <mxCell id="JnQCX83TrEtzzExQsLUF-11" value="" style="endArrow=classic;html=1;rounded=0;" edge="1" parent="1">
          <mxGeometry width="50" height="50" relative="1" as="geometry">
            <mxPoint x="92.5" y="130" as="sourcePoint" />
            <mxPoint x="92.75" y="160" as="targetPoint" />
            <Array as="points" />
          </mxGeometry>
        </mxCell>
        <mxCell id="JnQCX83TrEtzzExQsLUF-13" value="" style="endArrow=classic;html=1;rounded=0;" edge="1" parent="1">
          <mxGeometry width="50" height="50" relative="1" as="geometry">
            <mxPoint x="92.5" y="200" as="sourcePoint" />
            <mxPoint x="92.75" y="230" as="targetPoint" />
            <Array as="points" />
          </mxGeometry>
        </mxCell>
        <mxCell id="JnQCX83TrEtzzExQsLUF-15" value="usia (0-12)" style="rhombus;whiteSpace=wrap;html=1;" vertex="1" parent="1">
          <mxGeometry x="53" y="230" width="80" height="70" as="geometry" />
        </mxCell>
        <mxCell id="JnQCX83TrEtzzExQsLUF-16" value="" style="endArrow=classic;html=1;rounded=0;" edge="1" parent="1">
          <mxGeometry width="50" height="50" relative="1" as="geometry">
            <mxPoint x="92.5" y="300" as="sourcePoint" />
            <mxPoint x="93" y="340" as="targetPoint" />
            <Array as="points" />
          </mxGeometry>
        </mxCell>
        <mxCell id="JnQCX83TrEtzzExQsLUF-21" value="True" style="edgeLabel;html=1;align=center;verticalAlign=middle;resizable=0;points=[];" vertex="1" connectable="0" parent="JnQCX83TrEtzzExQsLUF-16">
          <mxGeometry x="-0.2459" y="-3" relative="1" as="geometry">
            <mxPoint as="offset" />
          </mxGeometry>
        </mxCell>
        <mxCell id="JnQCX83TrEtzzExQsLUF-18" value="" style="endArrow=classic;html=1;rounded=0;" edge="1" parent="1">
          <mxGeometry width="50" height="50" relative="1" as="geometry">
            <mxPoint x="133" y="264.5" as="sourcePoint" />
            <mxPoint x="193" y="264.5" as="targetPoint" />
          </mxGeometry>
        </mxCell>
        <mxCell id="JnQCX83TrEtzzExQsLUF-20" value="False" style="edgeLabel;html=1;align=center;verticalAlign=middle;resizable=0;points=[];" vertex="1" connectable="0" parent="JnQCX83TrEtzzExQsLUF-18">
          <mxGeometry x="-0.0333" y="-1" relative="1" as="geometry">
            <mxPoint as="offset" />
          </mxGeometry>
        </mxCell>
        <mxCell id="JnQCX83TrEtzzExQsLUF-22" value="usia (13-19)" style="rhombus;whiteSpace=wrap;html=1;" vertex="1" parent="1">
          <mxGeometry x="190" y="230" width="80" height="70" as="geometry" />
        </mxCell>
        <mxCell id="JnQCX83TrEtzzExQsLUF-23" value="" style="endArrow=classic;html=1;rounded=0;" edge="1" parent="1">
          <mxGeometry width="50" height="50" relative="1" as="geometry">
            <mxPoint x="270" y="264.5" as="sourcePoint" />
            <mxPoint x="330" y="264.5" as="targetPoint" />
          </mxGeometry>
        </mxCell>
        <mxCell id="JnQCX83TrEtzzExQsLUF-25" value="usia (20-64)" style="rhombus;whiteSpace=wrap;html=1;" vertex="1" parent="1">
          <mxGeometry x="330" y="230" width="80" height="70" as="geometry" />
        </mxCell>
        <mxCell id="JnQCX83TrEtzzExQsLUF-29" value="" style="endArrow=classic;html=1;rounded=0;" edge="1" parent="1">
          <mxGeometry width="50" height="50" relative="1" as="geometry">
            <mxPoint x="410" y="264.5" as="sourcePoint" />
            <mxPoint x="470" y="264.5" as="targetPoint" />
          </mxGeometry>
        </mxCell>
        <mxCell id="JnQCX83TrEtzzExQsLUF-31" value="usia &amp;gt; 65" style="rhombus;whiteSpace=wrap;html=1;" vertex="1" parent="1">
          <mxGeometry x="470" y="230" width="80" height="70" as="geometry" />
        </mxCell>
        <mxCell id="JnQCX83TrEtzzExQsLUF-33" value="" style="endArrow=classic;html=1;rounded=0;exitX=1;exitY=0.5;exitDx=0;exitDy=0;" edge="1" parent="1" source="JnQCX83TrEtzzExQsLUF-31">
          <mxGeometry width="50" height="50" relative="1" as="geometry">
            <mxPoint x="540" y="264.5" as="sourcePoint" />
            <mxPoint x="600" y="264.5" as="targetPoint" />
          </mxGeometry>
        </mxCell>
        <mxCell id="JnQCX83TrEtzzExQsLUF-34" value="tidak valid" style="rounded=0;whiteSpace=wrap;html=1;" vertex="1" parent="1">
          <mxGeometry x="600" y="247.5" width="90" height="35" as="geometry" />
        </mxCell>
        <mxCell id="JnQCX83TrEtzzExQsLUF-37" value="" style="endArrow=classic;html=1;rounded=0;" edge="1" parent="1">
          <mxGeometry width="50" height="50" relative="1" as="geometry">
            <mxPoint x="509.5" y="300" as="sourcePoint" />
            <mxPoint x="510" y="340" as="targetPoint" />
            <Array as="points" />
          </mxGeometry>
        </mxCell>
        <mxCell id="JnQCX83TrEtzzExQsLUF-38" value="True" style="edgeLabel;html=1;align=center;verticalAlign=middle;resizable=0;points=[];" vertex="1" connectable="0" parent="JnQCX83TrEtzzExQsLUF-37">
          <mxGeometry x="-0.2459" y="-3" relative="1" as="geometry">
            <mxPoint as="offset" />
          </mxGeometry>
        </mxCell>
        <mxCell id="JnQCX83TrEtzzExQsLUF-39" value="" style="endArrow=classic;html=1;rounded=0;" edge="1" parent="1">
          <mxGeometry width="50" height="50" relative="1" as="geometry">
            <mxPoint x="369.5" y="300" as="sourcePoint" />
            <mxPoint x="370" y="340" as="targetPoint" />
            <Array as="points" />
          </mxGeometry>
        </mxCell>
        <mxCell id="JnQCX83TrEtzzExQsLUF-40" value="True" style="edgeLabel;html=1;align=center;verticalAlign=middle;resizable=0;points=[];" vertex="1" connectable="0" parent="JnQCX83TrEtzzExQsLUF-39">
          <mxGeometry x="-0.2459" y="-3" relative="1" as="geometry">
            <mxPoint as="offset" />
          </mxGeometry>
        </mxCell>
        <mxCell id="JnQCX83TrEtzzExQsLUF-41" value="" style="endArrow=classic;html=1;rounded=0;" edge="1" parent="1">
          <mxGeometry width="50" height="50" relative="1" as="geometry">
            <mxPoint x="229.5" y="300" as="sourcePoint" />
            <mxPoint x="230" y="340" as="targetPoint" />
            <Array as="points" />
          </mxGeometry>
        </mxCell>
        <mxCell id="JnQCX83TrEtzzExQsLUF-42" value="True" style="edgeLabel;html=1;align=center;verticalAlign=middle;resizable=0;points=[];" vertex="1" connectable="0" parent="JnQCX83TrEtzzExQsLUF-41">
          <mxGeometry x="-0.2459" y="-3" relative="1" as="geometry">
            <mxPoint as="offset" />
          </mxGeometry>
        </mxCell>
        <mxCell id="JnQCX83TrEtzzExQsLUF-43" value="lansia" style="rounded=0;whiteSpace=wrap;html=1;" vertex="1" parent="1">
          <mxGeometry x="470" y="340" width="90" height="35" as="geometry" />
        </mxCell>
        <mxCell id="JnQCX83TrEtzzExQsLUF-44" value="dewasa" style="rounded=0;whiteSpace=wrap;html=1;" vertex="1" parent="1">
          <mxGeometry x="325" y="340" width="90" height="35" as="geometry" />
        </mxCell>
        <mxCell id="JnQCX83TrEtzzExQsLUF-45" value="remaja" style="rounded=0;whiteSpace=wrap;html=1;" vertex="1" parent="1">
          <mxGeometry x="190" y="340" width="90" height="35" as="geometry" />
        </mxCell>
        <mxCell id="JnQCX83TrEtzzExQsLUF-46" value="anak" style="rounded=0;whiteSpace=wrap;html=1;" vertex="1" parent="1">
          <mxGeometry x="50" y="340" width="90" height="35" as="geometry" />
        </mxCell>
        <mxCell id="JnQCX83TrEtzzExQsLUF-56" value="" style="endArrow=classic;html=1;rounded=0;" edge="1" parent="1">
          <mxGeometry width="50" height="50" relative="1" as="geometry">
            <mxPoint x="369.5" y="375" as="sourcePoint" />
            <mxPoint x="370" y="440" as="targetPoint" />
          </mxGeometry>
        </mxCell>
        <mxCell id="JnQCX83TrEtzzExQsLUF-57" value="" style="endArrow=classic;html=1;rounded=0;" edge="1" parent="1">
          <mxGeometry width="50" height="50" relative="1" as="geometry">
            <mxPoint x="240" y="375" as="sourcePoint" />
            <mxPoint x="240" y="440" as="targetPoint" />
            <Array as="points">
              <mxPoint x="240" y="385" />
            </Array>
          </mxGeometry>
        </mxCell>
        <mxCell id="JnQCX83TrEtzzExQsLUF-59" value="" style="endArrow=classic;html=1;rounded=0;" edge="1" parent="1">
          <mxGeometry width="50" height="50" relative="1" as="geometry">
            <mxPoint x="80" y="375" as="sourcePoint" />
            <mxPoint x="80" y="460" as="targetPoint" />
          </mxGeometry>
        </mxCell>
        <mxCell id="JnQCX83TrEtzzExQsLUF-60" value="" style="endArrow=classic;html=1;rounded=0;" edge="1" parent="1">
          <mxGeometry width="50" height="50" relative="1" as="geometry">
            <mxPoint x="520" y="375" as="sourcePoint" />
            <mxPoint x="80" y="440" as="targetPoint" />
            <Array as="points">
              <mxPoint x="520" y="440" />
            </Array>
          </mxGeometry>
        </mxCell>
        <mxCell id="JnQCX83TrEtzzExQsLUF-63" value="output hasil" style="shape=parallelogram;perimeter=parallelogramPerimeter;whiteSpace=wrap;html=1;fixedSize=1;" vertex="1" parent="1">
          <mxGeometry x="30" y="460" width="110" height="40" as="geometry" />
        </mxCell>
        <mxCell id="JnQCX83TrEtzzExQsLUF-64" value="" style="endArrow=classic;html=1;rounded=0;" edge="1" parent="1">
          <mxGeometry width="50" height="50" relative="1" as="geometry">
            <mxPoint x="80" y="500" as="sourcePoint" />
            <mxPoint x="80" y="530" as="targetPoint" />
            <Array as="points">
              <mxPoint x="80" y="510" />
            </Array>
          </mxGeometry>
        </mxCell>
        <mxCell id="JnQCX83TrEtzzExQsLUF-65" value="and" style="ellipse;whiteSpace=wrap;html=1;" vertex="1" parent="1">
          <mxGeometry x="33" y="530" width="86" height="40" as="geometry" />
        </mxCell>
      </root>
    </mxGraphModel>
  </diagram>
</mxfile>
